<svg width="256" height="192" viewBox="0 0 256 192" fill="none" xmlns="http://www.w3.org/2000/svg">
<path d="M220.281 110.514C211.375 110.56 203.634 112.705 197.153 115.876C194.774 111.166 192.396 106.97 191.977 103.892C191.51 100.302 190.951 98.11 191.51 93.82C192.07 89.53 194.588 83.421 194.541 82.955C194.495 82.489 193.981 80.297 188.852 80.251C183.723 80.204 179.293 81.23 178.78 82.582C178.267 83.934 177.288 87.012 176.635 90.182C175.749 94.846 166.377 111.492 161.015 120.212C159.289 116.809 157.797 113.824 157.47 111.446C157.004 107.856 156.444 105.664 157.004 101.374C157.564 97.084 160.082 90.976 160.035 90.509C159.988 90.043 159.475 87.851 154.346 87.805C149.216 87.758 144.786 88.784 144.274 90.136C143.761 91.489 143.201 94.659 142.129 97.737C141.056 100.815 128.606 128.607 125.342 135.787C124.023 138.693 122.64 141.57 121.192 144.414C121.192 144.414 121.145 144.554 121.005 144.787C120.551 145.679 120.085 146.565 119.607 147.445V147.491C118.907 148.751 118.161 149.916 117.788 149.916C117.508 149.916 116.995 146.559 117.881 141.989C119.746 132.337 124.176 117.322 124.13 116.809C124.13 116.529 124.969 113.918 121.239 112.565C117.601 111.213 116.296 113.451 115.969 113.451C115.643 113.451 115.409 114.244 115.409 114.244C115.409 114.244 119.467 97.364 107.669 97.364C100.302 97.364 90.1365 105.431 85.1005 112.705C79.3756 115.82 73.6556 118.945 67.9405 122.078C65.1905 123.617 62.3455 125.156 59.6875 126.601C59.5005 126.415 59.3145 126.181 59.1275 125.995C44.8585 110.747 18.4665 99.975 19.5855 79.505C20.0055 72.044 22.5695 52.459 70.2725 28.678C109.534 9.326 140.777 14.688 146.186 26.579C153.926 43.553 129.446 75.075 88.8775 79.644C73.3965 81.37 65.2825 75.401 63.2315 73.163C61.0865 70.831 60.7595 70.691 59.9665 71.158C58.6615 71.858 59.5005 73.956 59.9665 75.168C61.1795 78.338 66.1685 83.934 74.6085 86.686C82.0695 89.11 100.208 90.463 122.171 81.976C146.745 72.463 165.957 46.024 160.315 23.875C154.672 1.399 117.368 -6.015 82.0695 6.528C61.0865 13.99 38.3305 25.74 21.9635 41.035C2.51846 59.22 -0.559544 75.028 0.699456 81.65C5.22346 105.151 37.6315 120.446 50.5945 131.777C49.9415 132.15 49.3345 132.477 48.8225 132.757C42.3405 135.974 17.6265 148.89 11.4715 162.553C4.47746 178.034 12.5915 189.133 17.9535 190.624C34.6005 195.241 51.7135 186.941 60.8995 173.231C70.0855 159.522 68.9665 141.709 64.7235 133.549C64.6765 133.456 64.6305 133.362 64.5365 133.269C66.2155 132.29 67.9405 131.264 69.6195 130.285C72.7053 128.461 75.8304 126.704 78.9925 125.015C77.4065 129.352 76.2405 134.528 75.6815 141.989C74.9815 150.756 78.5715 162.133 83.2815 166.609C85.3805 168.569 87.8515 168.615 89.4375 168.615C94.9395 168.615 97.4115 164.045 100.162 158.636C103.519 152.015 106.55 144.321 106.55 144.321C106.55 144.321 102.773 165.118 113.032 165.118C116.762 165.118 120.539 160.268 122.218 157.797V157.843C122.218 157.843 122.311 157.703 122.498 157.377C122.871 156.771 123.104 156.397 123.104 156.397V156.305C124.596 153.693 127.954 147.771 132.943 137.932C139.378 125.249 145.58 109.395 145.58 109.395C145.58 109.395 146.14 113.265 148.051 119.7C149.171 123.477 151.501 127.627 153.367 131.637C151.875 133.736 150.942 134.901 150.942 134.901L150.989 134.948C149.776 136.533 148.471 138.258 147.025 139.938C141.942 145.999 135.881 152.948 135.041 154.952C134.061 157.33 134.295 159.056 136.161 160.455C137.513 161.481 139.937 161.62 142.409 161.481C146.979 161.154 150.196 160.035 151.781 159.336C154.253 158.45 157.144 157.097 159.848 155.092C164.838 151.408 167.868 146.139 167.589 139.192C167.449 135.368 166.19 131.544 164.651 127.953C165.118 127.301 165.537 126.648 166.004 125.995C173.884 114.477 179.993 101.84 179.993 101.84C179.993 101.84 180.553 105.71 182.464 112.146C183.397 115.41 185.309 118.954 186.987 122.404C179.573 128.42 175.003 135.414 173.371 139.984C170.434 148.471 172.718 152.294 177.055 153.18C179.013 153.6 181.811 152.667 183.863 151.781C186.474 150.942 189.552 149.497 192.49 147.351C197.48 143.668 202.282 138.538 202.002 131.591C201.862 128.42 201.023 125.295 199.857 122.264C206.152 119.654 214.266 118.208 224.617 119.42C246.814 122.031 251.197 135.88 250.357 141.71C249.518 147.538 244.855 150.709 243.317 151.688C241.777 152.668 241.265 152.994 241.405 153.693C241.591 154.719 242.337 154.673 243.643 154.486C245.462 154.16 255.301 149.776 255.72 139.051C256.42 125.342 243.363 110.374 220.281 110.514V110.514ZM49.0555 168.242C41.6875 176.262 31.4295 179.293 26.9995 176.729C22.2435 173.977 24.1085 162.133 33.1545 153.647C38.6565 148.471 45.7445 143.667 50.4545 140.73C51.5265 140.077 53.1125 139.145 55.0245 137.979C55.3505 137.792 55.5375 137.699 55.5375 137.699L56.6565 136.999C59.9665 149.123 56.7965 159.802 49.0555 168.242V168.242ZM102.68 131.777C100.115 138.026 94.7535 154.02 91.4895 153.134C88.6915 152.388 86.9655 140.264 90.9295 128.28C92.9345 122.264 97.1775 115.083 99.6495 112.286C103.659 107.809 108.089 106.316 109.161 108.136C110.514 110.514 104.265 127.86 102.68 131.777V131.777ZM146.932 152.947C145.859 153.507 144.834 153.88 144.367 153.6C144.041 153.413 144.834 152.667 144.834 152.667C144.834 152.667 150.383 146.699 152.574 143.994C153.834 142.409 155.325 140.544 156.911 138.445V139.051C156.911 146.186 150.009 150.989 146.931 152.947H146.932ZM181.065 145.16C180.272 144.6 180.412 142.735 183.07 136.906C184.096 134.621 186.52 130.798 190.671 127.114C191.137 128.606 191.464 130.052 191.417 131.404C191.37 140.404 184.936 143.761 181.065 145.16Z" fill="#CD6799"/>
</svg>
