<svg width="640" height="512" viewBox="0 0 640 512" fill="none" xmlns="http://www.w3.org/2000/svg">
<path d="M165 144.7L121.7 153.9L121.5 296.3C121.5 322.6 141.3 339.6 167.6 339.6C182.2 339.6 192.9 336.9 198.8 333.7V299.9C193.1 302.2 165.1 310.4 165.1 284.2V221H198.8V183.2H165.1L165 144.7ZM254.1 196.3L251.4 183.2H213V336.4H257.3V233.3C267.8 219.5 285.5 222.2 291.2 224V183.2C285.2 181.1 264.5 177.2 254.1 196.3ZM346.4 124L301.8 133.5V169.7L346.4 160.2V124ZM44.9001 228.3C44.9001 221.4 50.7001 218.7 60.0001 218.6C73.5001 218.6 90.7001 222.7 104.2 230V188.2C89.5001 182.4 74.8001 180.1 60.1001 180.1C24.1001 180.1 0.100098 198.9 0.100098 230.3C0.100098 279.5 67.6001 271.5 67.6001 292.7C67.6001 300.9 60.5001 303.6 50.6001 303.6C35.9001 303.6 16.9001 297.5 2.0001 289.4V329.4C18.5001 336.5 35.2001 339.5 50.5001 339.5C87.4001 339.5 112.8 323.7 112.8 291.7C112.8 238.8 44.9001 248.3 44.9001 228.3V228.3ZM640 261.6C640 216.1 618 180.2 575.8 180.2C533.6 180.2 507.9 216.1 507.9 261.3C507.9 314.8 538.2 339.5 581.4 339.5C602.6 339.5 618.5 334.7 630.6 328V294.6C618.5 300.7 604.6 304.4 587 304.4C569.7 304.4 554.5 298.3 552.5 277.5H639.4C639.6 275.2 640 265.9 640 261.6V261.6ZM552.1 244.8C552.1 224.8 564.4 216.4 575.5 216.4C586.4 216.4 598 224.8 598 244.8H552.1ZM439.2 180.2C421.8 180.2 410.6 188.4 404.4 194.1L402.1 183.1H363V387.9L407.4 378.5L407.5 328.3C413.9 333 423.4 339.5 438.9 339.5C470.7 339.5 499.7 316.3 499.7 259.9C499.8 208.3 470.4 180.2 439.2 180.2V180.2ZM428.6 302.7C418.2 302.7 412 298.9 407.7 294.3L407.4 228.3C412 223.2 418.4 219.5 428.6 219.5C444.8 219.5 456 237.7 456 260.9C456.1 284.8 445.1 302.7 428.6 302.7ZM301.9 336.4H346.5V183.2H301.9V336.4Z" fill="black"/>
</svg>
