<svg width="512" height="114" viewBox="0 0 512 114" fill="none" xmlns="http://www.w3.org/2000/svg">
<path d="M57.616 0C89.438 0 115.232 25.517 115.232 56.996C115.232 88.476 89.438 113.993 57.616 113.993C25.794 113.993 0 88.476 0 56.996C0 25.516 25.794 0 57.616 0ZM319.838 31.223C333.383 31.223 344.336 42.763 344.336 56.996C344.336 71.229 333.383 82.77 319.838 82.77C313.508 82.77 307.548 80.262 303.108 75.844L302.793 75.525V99.952L302.786 100.086C302.75 100.413 302.603 100.717 302.369 100.948C302.136 101.179 301.83 101.323 301.503 101.356L301.367 101.363H292.683L292.547 101.356C292.22 101.323 291.914 101.179 291.68 100.948C291.446 100.717 291.299 100.413 291.263 100.086L291.257 99.952V33.916L291.263 33.781C291.299 33.4543 291.446 33.1499 291.68 32.9187C291.914 32.6875 292.22 32.5436 292.547 32.511L292.683 32.505H301.367L301.503 32.512C301.83 32.5448 302.136 32.6888 302.369 32.92C302.603 33.1511 302.75 33.4554 302.786 33.782L302.793 33.916V38.468C307.265 33.852 313.422 31.223 319.838 31.223V31.223ZM43.488 29.941C23.72 49.495 30.072 84.244 30.072 84.244C30.072 84.244 65.264 90.464 84.966 70.973C95.919 60.138 95.53 42.123 84.059 30.838C72.587 19.554 54.441 19.106 43.488 29.941V29.941ZM363.65 12.63L363.785 12.636C364.112 12.6686 364.418 12.8125 364.652 13.0437C364.886 13.2749 365.033 13.5793 365.069 13.906L365.075 14.04V38.467C369.547 33.851 375.705 31.222 382.121 31.222C395.666 31.222 406.619 42.762 406.619 56.995C406.619 71.228 395.666 82.77 382.12 82.77C375.79 82.77 369.83 80.262 365.389 75.844L365.074 75.525V80.077L365.068 80.211C365.032 80.5377 364.885 80.8421 364.651 81.0733C364.417 81.3045 364.111 81.4484 363.784 81.481L363.649 81.488H354.964C354.232 81.488 353.614 80.92 353.544 80.211L353.538 80.077V14.041C353.538 13.317 354.112 12.706 354.828 12.637L354.964 12.63H363.649H363.65ZM438.57 31.222C453.217 31.222 465.077 42.762 465.077 56.995C465.077 71.228 453.217 82.77 438.57 82.77C423.923 82.77 412.063 71.23 412.063 56.996C412.063 42.763 423.923 31.223 438.57 31.223V31.222ZM249.325 31.222C255.655 31.222 261.615 33.73 266.055 38.148L266.37 38.467V33.915L266.376 33.78C266.412 33.4533 266.559 33.1489 266.793 32.9177C267.027 32.6865 267.333 32.5426 267.66 32.51L267.795 32.504H276.48C277.212 32.504 277.83 33.072 277.9 33.78L277.906 33.915V80.076L277.899 80.21C277.863 80.5366 277.716 80.8409 277.482 81.072C277.249 81.3032 276.943 81.4472 276.616 81.48L276.48 81.487H267.795L267.66 81.48C267.333 81.4474 267.027 81.3035 266.793 81.0723C266.559 80.8411 266.412 80.5367 266.376 80.21L266.37 80.076V75.524C261.898 80.14 255.74 82.769 249.325 82.769C235.779 82.769 224.826 71.229 224.826 56.995C224.826 42.762 235.779 31.222 249.325 31.222V31.222ZM510.575 32.44C510.833 32.44 511.093 32.504 511.287 32.632C511.834 32.993 512.039 33.748 511.742 34.317L511.676 34.427L496.77 56.867L511.806 79.5C511.936 79.756 512 80.013 512 80.27C512 80.93 511.487 81.479 510.836 81.545L510.704 81.552H500.788C500.07 81.552 499.408 81.224 499.004 80.669L498.908 80.526L489.965 65.78L481.021 80.526C480.839 80.8191 480.589 81.0645 480.293 81.2417C479.997 81.4189 479.663 81.5229 479.319 81.545L479.141 81.552H469.096C468.836 81.552 468.577 81.488 468.383 81.359C467.836 80.999 467.631 80.244 467.928 79.675L467.994 79.565L483.03 56.932L468.124 34.492C467.992 34.2812 467.924 34.0366 467.929 33.788C467.929 33.126 468.442 32.578 469.093 32.512L469.225 32.505H479.271C479.989 32.505 480.651 32.833 481.055 33.388L481.15 33.531L489.9 48.021L498.65 33.467C498.832 33.174 499.081 32.9286 499.377 32.7512C499.672 32.5738 500.006 32.4695 500.35 32.447L500.529 32.441H510.574L510.575 32.44ZM198.837 31.222C208.77 31.222 216.865 38.681 217.046 48.021L217.049 48.341L217.114 80.076L217.107 80.21C217.071 80.5366 216.924 80.8409 216.69 81.072C216.457 81.3032 216.151 81.4472 215.824 81.48L215.688 81.487H206.938C206.586 81.4852 206.247 81.3541 205.986 81.1186C205.724 80.8831 205.559 80.5598 205.52 80.21L205.513 80.076V51.866C205.513 45.904 200.911 41.352 195.403 41.352C190.501 41.352 186.475 45.557 185.596 51.052L185.551 51.353L185.616 80.076L185.61 80.21C185.574 80.5367 185.427 80.8411 185.193 81.0723C184.959 81.3035 184.653 81.4474 184.326 81.48L184.19 81.487H175.441C174.709 81.487 174.091 80.919 174.021 80.21L174.015 80.076V51.866C174.015 45.904 169.414 41.352 163.905 41.352C158.679 41.352 154.393 46.125 153.944 52.137L153.924 52.443V80.076L153.917 80.21C153.881 80.5366 153.734 80.8409 153.5 81.072C153.267 81.3032 152.961 81.4472 152.634 81.48L152.498 81.487H143.814L143.678 81.48C143.351 81.4474 143.045 81.3035 142.811 81.0723C142.577 80.8411 142.43 80.5367 142.394 80.21L142.388 80.076V33.916L142.394 33.781C142.43 33.4543 142.577 33.1499 142.811 32.9187C143.045 32.6875 143.351 32.5436 143.678 32.511L143.814 32.505H152.498L152.634 32.512C152.961 32.5448 153.267 32.6888 153.5 32.92C153.734 33.1511 153.881 33.4554 153.917 33.782L153.924 33.916V38.019C155.473 35.9158 157.493 34.2053 159.824 33.025C162.154 31.8447 164.728 31.2275 167.34 31.223C174.145 31.159 180.496 34.877 183.672 40.84C186.459 35.006 192.356 31.287 198.837 31.223V31.222ZM380.111 41.544C371.986 41.544 365.44 48.167 365.148 56.478L365.14 56.803V57.188C365.205 65.651 371.88 72.447 380.111 72.447C388.342 72.447 395.083 65.522 395.083 56.995C395.083 48.468 388.407 41.545 380.111 41.545V41.544ZM438.505 41.544C430.275 41.544 423.535 48.468 423.535 56.995C423.535 65.522 430.21 72.447 438.505 72.447C446.736 72.447 453.476 65.522 453.476 56.995C453.476 48.468 446.736 41.545 438.506 41.545L438.505 41.544ZM251.334 41.544C243.103 41.544 236.363 48.468 236.363 56.995C236.363 65.522 243.038 72.447 251.333 72.447C259.46 72.447 266.071 65.822 266.299 57.508L266.305 57.188V56.803C266.24 48.34 259.565 41.544 251.334 41.544V41.544ZM317.829 41.544C309.704 41.544 303.157 48.167 302.866 56.478L302.858 56.803V57.188C302.923 65.651 309.598 72.447 317.828 72.447C326.125 72.447 332.8 65.522 332.8 56.995C332.8 48.468 326.125 41.545 317.829 41.545V41.544ZM64.227 33.403L69.865 44.879L81.466 50.457L69.866 56.035L64.226 67.511L58.588 56.035L46.988 50.457L58.588 44.879L64.227 33.403V33.403Z" fill="#485160"/>
</svg>
