<svg width="512" height="155" viewBox="0 0 512 155" fill="none" xmlns="http://www.w3.org/2000/svg">
<path d="M77.016 0C119.528 0 154.031 34.503 154.031 77.016C154.031 119.528 119.528 154.031 77.016 154.031C34.503 154.031 0 119.528 0 77.016C0 34.503 34.503 0 77.016 0ZM77.016 20.332C69.5666 20.3123 62.1868 21.7651 55.3007 24.6068C48.4146 27.4484 42.158 31.623 36.8905 36.8905C31.623 42.158 27.4484 48.4146 24.6068 55.3007C21.7651 62.1868 20.3123 69.5666 20.332 77.016C20.332 108.438 45.593 133.699 77.016 133.699C108.438 133.699 133.699 108.438 133.699 77.016C133.699 45.593 108.438 20.332 77.016 20.332V20.332ZM472.876 52.062C495.673 52.062 512 68.698 512 88.414V88.722C512 108.438 495.673 125.382 472.568 125.382C449.771 125.382 433.444 108.746 433.444 89.03V88.722C433.444 69.006 449.771 52.062 472.876 52.062V52.062ZM207.634 30.499C208.558 30.191 209.483 31.115 209.483 31.731V53.912H250.455C251.379 53.912 251.995 54.528 252.303 55.144L255.692 67.774L258.772 80.405L259.081 81.021L259.389 79.789L267.09 54.22C267.398 53.604 268.323 52.988 268.939 52.988H289.271C290.195 52.988 290.811 53.604 291.119 54.22L299.129 81.638L299.437 80.405L306.214 54.836C306.522 54.22 307.446 53.604 308.063 53.604H360.433C361.049 53.604 361.665 54.22 361.665 55.144V122.302C361.665 122.918 361.049 123.534 360.433 123.534H334.248C333.632 123.534 333.016 122.918 333.016 122.302V57.608L313.3 122.3C312.992 122.916 312.067 123.532 311.451 123.532H289.887C288.963 123.532 288.347 122.916 288.039 122.3L283.726 108.745L279.105 93.958L269.863 122.608C269.555 123.224 268.631 123.84 268.014 123.84H246.45C245.526 123.84 244.91 123.224 244.602 122.608L225.194 58.223V74.858C225.194 75.474 224.578 76.09 223.961 76.09H209.174V93.65C209.174 98.887 211.639 100.735 216.26 100.735C218.724 100.735 220.88 100.427 223.653 99.195C224.27 99.195 225.193 99.503 225.193 100.427V120.76C220.573 123.224 213.795 124.764 206.71 124.764C189.767 124.764 180.525 116.754 180.525 99.811V75.783H173.747C173.131 75.783 172.515 75.167 172.515 74.551V54.835C172.515 54.219 173.131 53.603 173.747 53.603H180.525V39.74C180.525 39.124 180.833 38.816 181.757 38.508L207.634 30.499ZM394.936 30.191C395.552 30.191 396.168 30.807 396.168 31.423V122.302C396.168 122.918 395.552 123.534 394.936 123.534H368.751C368.135 123.534 367.519 122.918 367.519 122.302V31.422C367.519 30.806 368.135 30.19 368.751 30.19L394.936 30.191ZM429.439 53.604C430.055 53.604 430.671 54.22 430.671 55.144V122.302C430.671 122.918 430.055 123.534 429.439 123.534H403.254C402.638 123.534 402.022 122.918 402.022 122.302V54.835C402.022 54.219 402.638 53.603 403.254 53.603L429.439 53.604ZM96.116 80.096C104.963 80.096 112.135 87.268 112.135 96.116C112.135 104.963 104.963 112.135 96.115 112.135C87.268 112.135 80.096 104.963 80.096 96.115C80.096 87.268 87.268 80.096 96.116 80.096ZM57.916 80.096C66.763 80.096 73.935 87.268 73.935 96.116C73.935 104.963 66.763 112.135 57.915 112.135C49.069 112.135 41.897 104.963 41.897 96.115C41.897 87.268 49.069 80.096 57.916 80.096V80.096ZM472.568 76.091C466.098 76.091 461.478 81.329 461.478 88.106V88.414C461.478 95.191 466.407 100.736 472.876 100.736C479.346 100.736 483.966 95.499 483.966 88.722C483.966 81.637 479.037 76.092 472.568 76.092V76.091ZM96.116 41.897C104.963 41.897 112.135 49.069 112.135 57.916C112.135 66.763 104.963 73.935 96.115 73.935C87.268 73.935 80.096 66.763 80.096 57.915C80.096 49.069 87.268 41.897 96.116 41.897V41.897ZM57.916 41.897C66.763 41.897 73.935 49.069 73.935 57.916C73.935 66.763 66.763 73.935 57.915 73.935C49.069 73.935 41.897 66.763 41.897 57.915C41.897 49.069 49.069 41.897 57.916 41.897V41.897ZM360.74 30.19C361.664 30.19 362.28 30.806 361.973 31.422V47.134C361.973 47.75 361.356 48.366 360.74 48.366H333.63C333.015 48.366 332.399 47.75 332.399 47.134V31.422C332.399 30.806 333.015 30.19 333.631 30.19H360.74ZM429.746 30.19C430.67 30.19 431.286 30.806 430.979 31.422V47.134C430.979 47.75 430.362 48.366 429.746 48.366H402.636C402.021 48.366 401.405 47.75 401.405 47.134V31.422C401.405 30.806 402.021 30.19 402.637 30.19H429.746Z" fill="#F12E45"/>
</svg>
